<?xml version="1.0" encoding="UTF-8"?>
<svg version="1.1" xmlns="http://www.w3.org/2000/svg" width="2009" height="1061">
<path d="M0 0 C2.16038016 0.00326683 4.3195135 -0.02085736 6.47973633 -0.0456543 C7.87491693 -0.04791883 9.27010114 -0.04863475 10.6652832 -0.04760742 C11.8931958 -0.05058838 13.1211084 -0.05356934 14.38623047 -0.05664062 C17.74142142 0.33990794 19.10891661 1.03235927 21.53637695 3.31567383 C19.81075135 8.66331567 17.51576278 10.0318986 12.7434082 12.67504883 C-20.82357738 29.84695376 -58.44293935 39.71229216 -94.46362305 50.31567383 C-95.46395569 50.61022461 -96.46428833 50.90477539 -97.49493408 51.20825195 C-148.88894807 66.29825283 -201.03396196 79.22018517 -253.55682373 89.73352051 C-256.54673957 90.33231982 -259.53570736 90.9357106 -262.5246582 91.53930664 C-350.77942709 109.30142291 -440.06733562 121.24710187 -770.27612305 143.00317383 C-771.74267271 143.04929684 -771.74267271 143.04929684 -773.23884964 143.09635162 C-821.05403295 144.59637332 -868.87378601 145.41608778 -916.71020508 145.81835938 C-921.34337167 145.85735652 -925.97650092 145.89898636 -930.60961914 145.94335938 C-993.69926456 146.54726176 -1056.78668521 146.39368513 -1119.87675476 145.95632935 C-1122.18256479 145.9404574 -1124.48837667 145.92488988 -1126.79418945 145.90942383 C-1178.84857074 145.56016719 -1230.89957554 145.02047273 -1282.95075655 144.34812832 C-1285.43830939 144.31600076 -1287.92586352 144.28397537 -1290.41341782 144.25196075 C-1322.70176913 143.83579165 -1354.98909216 143.3868698 -1387.27524567 142.82432365 C-1407.75739859 142.46753527 -1428.22802375 142.16709988 -1448.71362305 142.25317383 C-1450.99356988 142.25824619 -1453.27351792 142.26279807 -1455.5534668 142.2668457 C-1460.85688564 142.27729247 -1466.16023805 142.29416646 -1471.46362305 142.31567383 C-1471.18647461 143.11231445 -1470.90932617 143.90895508 -1470.6237793 144.72973633 C-1470.26155273 145.7893457 -1469.89932617 146.84895508 -1469.52612305 147.94067383 C-1468.98665039 149.50688477 -1468.98665039 149.50688477 -1468.4362793 151.10473633 C-1465.65642869 160.28159253 -1465.15347098 169.21403138 -1469.1550293 178.06176758 C-1473.59056897 185.70148814 -1481.42264091 188.58317926 -1489.46362305 191.31567383 C-1498.50544205 193.6328639 -1507.67556366 195.01634316 -1516.92114258 196.22009277 C-1530.34825573 197.97372396 -1543.7326111 199.95690429 -1557.1081543 202.06542969 C-1653.00109341 217.18202026 -1751.23547587 230.49776268 -1971.46362305 205.31567383 C-1979.69550292 199.24804406 -1985.36179411 192.08275266 -1987.21728516 181.85302734 C-1987.49520891 178.99033003 -1987.2984551 176.38571705 -1987.00268555 173.52661133 C-1986.9042334 172.54740723 -1986.80578125 171.56820312 -1986.7043457 170.55932617 C-1986.62490723 169.8189209 -1986.54546875 169.07851563 -1986.46362305 168.31567383 C-1985.16501343 168.37387299 -1983.86640381 168.43207214 -1982.52844238 168.49203491 C-1895.01819962 172.50632034 -1895.01819962 172.50632034 -1807.46362305 175.31567383 C-1806.32948975 175.34383179 -1805.19535645 175.37198975 -1804.02685547 175.40100098 C-1670.44617071 181.02960444 -1670.44617071 181.02960444 -1512.77612305 152.94067383 C-1510.30587396 150.54277513 -1509.43203693 149.2344524 -1508.15112305 145.94067383 C-1508.8256448 138.11622153 -1512.94032501 133.44469948 -1518.71362305 128.37817383 C-1524.45713471 123.79054389 -1530.59746542 120.08790056 -1537.02709961 116.53857422 C-1538.86758776 115.5135374 -1540.67003618 114.42072735 -1542.46362305 113.31567383 C-1542.46362305 112.65567383 -1542.46362305 111.99567383 -1542.46362305 111.31567383 C-1541.69324707 111.33850937 -1540.92287109 111.36134491 -1540.12915039 111.38487244 C-1532.60949587 111.60738678 -1525.08978265 111.827774 -1517.57000732 112.04616451 C-1513.71062108 112.15831402 -1509.85125629 112.27109545 -1505.99194336 112.38574219 C-1495.68202711 112.69155664 -1485.37170294 112.97786234 -1475.06077194 113.24733353 C-1472.45333084 113.31594465 -1469.84594446 113.38642383 -1467.23855591 113.45700073 C-1431.64063864 114.40741597 -1396.04815361 114.50368485 -1360.4403702 114.50078505 C-1355.00482146 114.50108676 -1349.56932305 114.50921682 -1344.13378906 114.52148438 C-1298.87500875 114.62115028 -1253.69539639 113.88504988 -1208.46362305 112.31567383 C-1207.32938526 112.27672878 -1206.19514748 112.23778374 -1205.02653885 112.19765854 C-1192.02333956 111.74967126 -1179.0231332 111.24573619 -1166.0243454 110.68434143 C-1163.15195092 110.5603121 -1160.27949903 110.43766905 -1157.40704346 110.31506348 C-1042.42755621 105.38541294 -927.59128173 97.6598543 -215.67456055 25.83911133 C-214.78198799 25.71865322 -213.88941544 25.59819511 -212.96979523 25.47408676 C-194.09433435 22.92630103 -175.22014737 20.36925544 -156.34819794 17.79558563 C-124.70385024 13.48013925 -93.06094423 9.17529696 -61.36206055 5.27661133 C-59.64913252 5.06498289 -59.64913252 5.06498289 -57.90159988 4.84907913 C-46.93852597 3.4993625 -35.97243769 2.21786536 -24.97802734 1.14941406 C-23.73344914 1.02703778 -23.73344914 1.02703778 -22.46372795 0.90218925 C-14.97898597 0.20156923 -7.51507209 -0.02378466 0 0 Z " fill="#000000" transform="translate(1987.463623046875,695.684326171875)"/>
<path d="M0 0 C0 1.32 0 2.64 0 4 C-1.54248047 5.46582031 -1.54248047 5.46582031 -3.7421875 6.828125 C-4.56686523 7.34181641 -5.39154297 7.85550781 -6.24121094 8.38476562 C-11.15509683 11.26178059 -16.12916483 14.01836024 -21.125 16.75 C-30.74396825 22.08227697 -40.07710375 27.56813023 -49 34 C-49.64727051 34.46615723 -50.29454102 34.93231445 -50.96142578 35.41259766 C-95.41527024 67.66634328 -128.43553827 109.71579804 -137.65234375 164.90625 C-138.17510399 168.59991361 -138.6135153 172.28974688 -139 176 C-139.11214844 177.010625 -139.22429687 178.02125 -139.33984375 179.0625 C-140.51941347 191.98929148 -140.08293475 205.03445789 -140 218 C-153.70503082 218.30848831 -167.34961208 217.42365561 -181.02716279 216.64723635 C-184.56159214 216.44773669 -188.09631618 216.25360757 -191.63102722 216.05917358 C-196.98386426 215.76441468 -202.33663981 215.46858939 -207.68933374 215.17124259 C-225.34000715 214.19101173 -242.99204087 213.2359581 -260.64453125 212.2890625 C-261.52410822 212.24187151 -262.4036852 212.19468053 -263.30991602 212.14605951 C-349.07316086 207.54819736 -434.87431613 203.58267771 -845.71875 188.6875 C-846.57959001 188.66128248 -847.44043003 188.63506496 -848.3273561 188.60805297 C-852.64446658 188.47658275 -856.96157857 188.34516201 -861.27869129 188.21376514 C-947.68335651 185.58384625 -1034.06526754 182.67231306 -1564.5 151.875 C-1565.57666428 151.7631839 -1565.57666428 151.7631839 -1566.67507935 151.64910889 C-1592.03713835 148.9752411 -1592.03713835 148.9752411 -1598 145 C-1598 144.34 -1598 143.68 -1598 143 C-1560.90005119 129.58921873 -1510.07290105 135.86870673 -1471.04355621 135.00142288 C-1468.33049953 134.94070055 -1465.61748753 134.87827314 -1462.90447998 134.81539917 C-1447.93744456 134.47244374 -1432.9692981 134.22086523 -1418 134 C-1417.26965357 133.9891292 -1416.53930714 133.9782584 -1415.78682899 133.96705818 C-1334.7700528 132.76536515 -1253.74923542 132.84388742 -1172.72577138 132.87053821 C-1158.95747746 132.8749814 -1145.18919219 132.87420315 -1131.42089844 132.86962891 C-1047.19404566 132.84245354 -962.97315981 132.95846797 -858.13741589 133.96817684 C-855.12918291 133.99868968 -852.12094663 134.0288515 -849.11270905 134.05890656 C-826.93564636 134.28117085 -804.75931252 134.54320674 -782.58319616 134.84507656 C-779.51696192 134.88662734 -776.45071833 134.92746804 -773.38447505 134.96834552 C-691.58710468 136.05979094 -609.79496662 137.49763095 -275.51848781 146.34309697 C-273.00970763 146.42435386 -270.50091925 146.5053521 -267.99212742 146.5862484 C-267.18306326 146.61234283 -266.3739991 146.63843725 -265.54041785 146.66532242 C-263.93593088 146.71706979 -262.33144351 146.76880449 -260.72695571 146.820526 C-256.16802518 146.96772385 -251.60917647 147.11718554 -247.05038375 147.26858866 C-244.93533534 147.33851911 -242.82025661 147.40743369 -240.70516109 147.47592354 C-238.1757584 147.55789271 -235.64640684 147.64146695 -233.11712742 147.72715569 C-229.74497206 147.83505416 -226.37290417 147.91930729 -223 148 C-221.73321033 148.04456581 -220.46642067 148.08913162 -219.16124344 148.13504791 C-217.90760372 148.16373711 -216.653964 148.1924263 -215.36233521 148.22198486 C-213.66073588 148.27155775 -213.66073588 148.27155775 -211.92476082 148.32213211 C-208.61102412 147.95715834 -207.60020427 147.33621771 -205.46484375 144.84375 C-204.5749378 143.42450775 -203.73399366 141.9736957 -202.9375 140.5 C-201.96681393 138.93124447 -200.99006942 137.36622415 -200.0078125 135.8046875 C-199.27546387 134.60344238 -199.27546387 134.60344238 -198.52832031 133.37792969 C-196.07395126 129.559151 -193.21782774 126.10610855 -190.3125 122.625 C-189.81419678 122.02107422 -189.31589355 121.41714844 -188.80249023 120.79492188 C-187.77680367 119.55295902 -186.74707319 118.31432766 -185.71386719 117.07861328 C-184.48796936 115.59181925 -183.28246087 114.08811971 -182.09082031 112.57373047 C-176.17640485 105.12549357 -169.70512282 98.39761863 -162.96240234 91.70166016 C-161.12752731 89.87751253 -159.30360668 88.04290127 -157.48046875 86.20703125 C-150.62587843 79.34450925 -143.62574599 73.00557192 -136 67 C-134.86035522 66.04800757 -133.72430566 65.09167503 -132.59375 64.12890625 C-99.26913116 36.25312487 -44.87800391 -1.13179177 0 0 Z " fill="#000000" transform="translate(1685,843)"/>
<path d="M0 0 C10.59038954 6.58066521 20.09793917 16.26803011 28.20703125 25.68359375 C32.02453069 30.06608915 35.99568562 34.28856591 40 38.5 C44.56217206 43.29814648 49.04077698 48.14044947 53.37890625 53.14257812 C55.70477009 55.80751368 58.09960286 58.40192309 60.5 61 C64.10109458 64.9089222 67.64419491 68.85868644 71.125 72.875 C74.01919336 76.15508581 76.99218892 79.36268057 79.95532227 82.58032227 C82.48740116 85.33473428 84.99035268 88.10742499 87.4375 90.9375 C91.48605082 95.60444522 95.69972597 100.1171033 99.8984375 104.6484375 C102.73711141 107.71209609 105.55765701 110.79171313 108.375 113.875 C113.66883848 119.66066307 119.01753479 125.39437511 124.375 131.12109375 C126.81828977 133.73295465 129.25531266 136.35045427 131.6875 138.97265625 C137.30087654 145.01863981 142.90733411 151.03974202 148.83984375 156.77734375 C150.71113386 158.70277607 152.45804802 160.67117466 154.20887756 162.70469666 C157.60886067 166.60019469 161.15675364 170.2987363 164.81811523 173.94750977 C165.45977631 174.59092316 166.10143738 175.23433655 166.76254272 175.89724731 C168.85873935 177.99780158 170.95852102 180.09472776 173.05859375 182.19140625 C174.53172645 183.66521374 176.00471077 185.13916954 177.47755432 186.61326599 C180.55478491 189.69196531 183.63380244 192.76886311 186.71411133 195.84448242 C190.64568672 199.77036106 194.57275494 203.7007127 198.49848843 207.63243198 C201.53627741 210.67384887 204.5764619 213.71286226 207.61735725 216.75117302 C209.06564618 218.19879885 210.51320368 219.64715685 211.95998955 221.09628487 C213.98840099 223.12725961 216.02003146 225.15496134 218.05249023 227.18188477 C218.93260017 228.06503105 218.93260017 228.06503105 219.83049011 228.96601868 C223.49565763 232.61288193 227.28878674 236.06095574 231.21043491 239.4307394 C234.69287361 242.48447233 237.85921483 245.84377422 241.09375 249.15625 C243.90031734 251.9667997 246.88826646 254.54443438 249.88964844 257.14355469 C253.47175917 260.29468495 256.91601347 263.59005053 260.375 266.875 C266.50830699 272.67350933 272.69324241 278.39036242 279 284 C280.70897011 285.54096076 282.41729363 287.08263888 284.125 288.625 C291.11753065 294.91394784 298.22588103 301.05960204 305.37182617 307.17285156 C309.78504102 310.95077348 314.17721781 314.75221606 318.5625 318.5625 C328.90704381 327.54138781 339.37367715 336.35538494 350 345 C351.72950867 346.41624911 353.45866817 347.83292473 355.1875 349.25 C356.09628906 349.9925 357.00507812 350.735 357.94140625 351.5 C359.55178924 352.81627729 361.16185388 354.13294981 362.76904297 355.453125 C370.97159916 362.19040735 379.25896574 368.78343852 387.71777344 375.1965332 C392.33346149 378.70257948 396.87207652 382.28818261 401.375 385.9375 C408.43269814 391.6385998 415.7157087 397.00625616 423.0390625 402.359375 C428.081589 406.04805591 433.07327531 409.8022103 438.0625 413.5625 C452.08944999 424.1126149 466.353495 434.3277066 480.72558594 444.40136719 C483.03321089 446.02334317 485.33308065 447.65591959 487.6328125 449.2890625 C500.92588157 458.67885707 514.47563374 467.6677708 528.0625 476.625 C529.44134872 477.5348616 529.44134872 477.5348616 530.84805298 478.46310425 C551.3513399 491.98309797 572.06311429 505.16183936 593 518 C594.59739014 518.98057373 594.59739014 518.98057373 596.22705078 519.98095703 C619.16893396 534.0450855 642.42527064 547.50773699 665.93359375 560.60546875 C669.85598975 562.79345074 673.76461633 565.00284587 677.66015625 567.23828125 C690.47040044 574.57936013 703.46803052 581.47567475 716.609375 588.19921875 C721.22088292 590.55865763 725.81095755 592.95312678 730.38687134 595.3807745 C740.3021301 600.63477771 750.30138592 605.70122233 760.35498047 610.68450737 C763.0934668 612.04244115 765.83015448 613.40394225 768.56640625 614.76637268 C776.33077647 618.6320363 784.09689687 622.49414954 791.8671875 626.34790039 C796.66396795 628.72722394 801.45763799 631.11272031 806.24951172 633.50190926 C808.04687496 634.39663108 809.84533371 635.28915646 811.64501953 636.17919731 C821.00150739 640.80732254 830.24667203 645.57980166 839.3125 650.75805664 C840.08303711 651.19329619 840.85357422 651.62853575 841.64746094 652.07696438 C846.58679066 654.9457138 850.76086972 658.16894114 855 662 C854.67 663.65 854.34 665.3 854 667 C813.7333515 681.31703058 745.03287812 651.71811592 706 639 C705.25510315 638.75743469 704.5102063 638.51486938 703.74273682 638.26495361 C668.17231423 626.64603174 633.32379408 613.07721224 599.1104126 597.93377686 C597.03613799 597.01598968 594.96027765 596.10186392 592.88427734 595.18798828 C573.75354959 586.7447094 554.96702006 577.63362862 536.25 568.3125 C535.21116669 567.79705627 534.17233337 567.28161255 533.10202026 566.75054932 C519.88520905 560.18109331 506.92379798 553.27496634 494.12475586 545.92358398 C489.23171219 543.11468845 484.28235138 540.42000097 479.3125 537.75 C467.39381509 531.26275037 455.85696326 524.13469966 444.30175781 517.02783203 C441.37032486 515.22744146 438.43280229 513.43767822 435.4921875 511.65234375 C382.9995162 479.65342093 333.20002665 442.6326499 286.69726562 402.45898438 C284.98795326 400.98964452 283.26904801 399.53236128 281.546875 398.078125 C274.58504523 392.18629459 267.83035443 386.12176895 261.19262695 379.86645508 C258.09624216 376.94921681 254.9874339 374.07422933 251.75 371.3125 C247.57003976 367.72318631 243.75232505 363.78250156 239.90625 359.84375 C237.76182607 357.69401152 235.52350753 355.6959186 233.22265625 353.71484375 C228.58787708 349.69949433 224.26107025 345.40807315 219.9375 341.0625 C218.7918457 339.92264648 218.7918457 339.92264648 217.62304688 338.75976562 C213.44224834 334.57181431 209.44879641 330.29022923 205.58813477 325.80639648 C203.33606268 323.24481596 200.94062365 320.88319721 198.5 318.5 C194.79322143 314.84288824 191.24694509 311.11035429 187.8671875 307.1484375 C185.97186723 304.96762966 184.01988714 302.84561449 182.05444336 300.72802734 C177.24241616 295.54205098 172.68409578 290.22872506 168.24609375 284.71484375 C165.9116941 281.89326505 163.48009402 279.19409288 161 276.5 C156.10493872 271.17368912 151.5382098 265.63059305 147 260 C145.5424923 258.22848705 144.08415078 256.45765983 142.625 254.6875 C137.8462258 248.84402482 133.1801675 242.91647126 128.53613281 236.96582031 C126.92094259 234.89882862 125.30041162 232.83609217 123.6796875 230.7734375 C111.54303896 215.29223208 99.90276944 199.46870063 88.63964844 183.34179688 C86.85315135 180.79026619 85.05552486 178.24676474 83.2578125 175.703125 C73.41637831 161.72845819 64.09000839 147.47315749 55 133 C54.13979248 131.63512451 54.13979248 131.63512451 53.26220703 130.24267578 C-7.40290536 33.84405043 -7.40290536 33.84405043 -7.0625 5.25 C-7.05347656 4.26515625 -7.04445313 3.2803125 -7.03515625 2.265625 C-7.02355469 1.51796875 -7.01195312 0.7703125 -7 0 C-4.13007732 -1.43496134 -3.07236191 -1.00185715 0 0 Z " fill="#000000" transform="translate(445,33)"/>
<path d="M0 0 C2.26864713 11.62957869 -3.50327814 22.87322446 -8 33.4375 C-8.50490967 34.64212891 -9.00981934 35.84675781 -9.5300293 37.08789062 C-13.29763743 46.06473661 -17.13627951 55.01173963 -20.95777893 63.96572876 C-30.88057251 87.21659246 -40.69910471 110.49242667 -50 134 C-50.48925964 135.2360498 -50.48925964 135.2360498 -50.98840332 136.49707031 C-89.0254136 232.71993032 -120.46839501 331.37870981 -179.97950745 598.59220886 C-180.77783281 602.870408 -181.5821847 607.14746604 -182.38656616 611.42453003 C-182.91095135 614.23282142 -183.42355933 617.043054 -183.93481445 619.85375977 C-185.6026497 628.8627995 -187.597078 637.71310843 -190.06640625 646.5390625 C-190.31164536 647.42782074 -190.55688446 648.31657898 -190.80955505 649.23226929 C-193.10623357 657.14807463 -193.10623357 657.14807463 -196 660 C-198.4375 660.625 -198.4375 660.625 -201 660 C-213.19071234 647.07045661 -213.05825935 618.94013388 -214.6875 602.375 C-214.80681885 601.16279785 -214.9261377 599.9505957 -215.04907227 598.70166016 C-216.7182644 580.51796619 -217.20846544 562.31543592 -217.1875 544.0625 C-217.18689575 543.07343658 -217.1862915 542.08437317 -217.18566895 541.06533813 C-217.0488731 457.5289524 -204.44354768 374.16009305 -108.54101562 133.671875 C-107.01230261 131.02133076 -105.51010248 128.35747558 -104.015625 125.6875 C-84.84567528 91.5255853 -62.64537873 57.13234615 -36.0390625 28.22265625 C-34.18749705 26.20437897 -32.40167 24.14650865 -30.625 22.0625 C-11.03781436 -0.2904688 -11.03781436 -0.2904688 0 0 Z " fill="#000000" transform="translate(306,169)"/>
<path d="M0 0 C5.07928668 1.96245167 7.2840594 7.90480582 9.53125 12.6640625 C46.33846053 96.69703138 64.77376187 191.45412483 171 739.625 C171.0141394 740.93887695 171.0141394 740.93887695 171.02856445 742.27929688 C171.00569934 746.65214234 170.79943835 750.08561368 168.75 754.0625 C165.71876367 753.75834533 164.17554718 753.51244783 162.046875 751.26171875 C114.77678222 674.50750245 96.76009987 570.23794522 71.75 473.0625 C71.45843018 471.92026978 71.16686035 470.77803955 70.86645508 469.60119629 C48.58303562 382.1086413 30.46764677 293.5089607 7.24810791 146.54205322 C6.77788718 143.25730707 6.30399691 139.97310848 5.82958984 136.68896484 C2.68570349 114.82123962 0.10819553 92.92325111 -2.0625 70.9375 C-2.16809235 69.87258331 -2.27368469 68.80766663 -2.38247681 67.71047974 C-7.16745306 18.99128151 -7.16745306 18.99128151 -3.25 1.0625 C-2.25 0.0625 -2.25 0.0625 0 0 Z " fill="#000000" transform="translate(355.25,-0.0625)"/>
</svg>
